<svg width="800" height="600" viewBox="0 0 800 600" fill="none" xmlns="http://www.w3.org/2000/svg">
  <!-- 背景 -->
  <rect width="800" height="600" fill="#1A202C"/>
  
  <!-- 地板网格 -->
  <path d="M0 500 L800 500" stroke="#2D3748" stroke-width="2"/>
  <path d="M0 450 L800 450" stroke="#2D3748" stroke-opacity="0.5"/>
  <path d="M0 400 L800 400" stroke="#2D3748" stroke-opacity="0.3"/>
  
  <!-- 服务器机柜组 1 -->
  <g transform="translate(100, 200)">
    <!-- 机柜框架 -->
    <rect width="120" height="300" fill="#2D3748"/>
    <rect x="10" y="20" width="100" height="260" fill="#4A5568"/>
    
    <!-- 服务器单元 -->
    <rect x="15" y="30" width="90" height="25" fill="#1A365D"/>
    <rect x="15" y="60" width="90" height="25" fill="#1A365D"/>
    <rect x="15" y="90" width="90" height="25" fill="#1A365D"/>
    <rect x="15" y="120" width="90" height="25" fill="#1A365D"/>
    <rect x="15" y="150" width="90" height="25" fill="#1A365D"/>
    <rect x="15" y="180" width="90" height="25" fill="#1A365D"/>
    <rect x="15" y="210" width="90" height="25" fill="#1A365D"/>
    <rect x="15" y="240" width="90" height="25" fill="#1A365D"/>
    
    <!-- 指示灯 -->
    <circle cx="95" cy="42.5" r="2" fill="#48BB78"/>
    <circle cx="85" cy="42.5" r="2" fill="#4FD1C5"/>
    <circle cx="95" cy="72.5" r="2" fill="#48BB78"/>
    <circle cx="85" cy="72.5" r="2" fill="#4FD1C5"/>
    <circle cx="95" cy="102.5" r="2" fill="#48BB78"/>
    <circle cx="85" cy="102.5" r="2" fill="#4FD1C5"/>
    <circle cx="95" cy="132.5" r="2" fill="#48BB78"/>
    <circle cx="85" cy="132.5" r="2" fill="#4FD1C5"/>
    <circle cx="95" cy="162.5" r="2" fill="#48BB78"/>
    <circle cx="85" cy="162.5" r="2" fill="#4FD1C5"/>
    <circle cx="95" cy="192.5" r="2" fill="#48BB78"/>
    <circle cx="85" cy="192.5" r="2" fill="#4FD1C5"/>
    <circle cx="95" cy="222.5" r="2" fill="#48BB78"/>
    <circle cx="85" cy="222.5" r="2" fill="#4FD1C5"/>
    <circle cx="95" cy="252.5" r="2" fill="#48BB78"/>
    <circle cx="85" cy="252.5" r="2" fill="#4FD1C5"/>
  </g>
  
  <!-- 服务器机柜组 2 -->
  <g transform="translate(300, 200)">
    <rect width="120" height="300" fill="#2D3748"/>
    <rect x="10" y="20" width="100" height="260" fill="#4A5568"/>
    <rect x="15" y="30" width="90" height="25" fill="#1A365D"/>
    <rect x="15" y="60" width="90" height="25" fill="#1A365D"/>
    <rect x="15" y="90" width="90" height="25" fill="#1A365D"/>
    <rect x="15" y="120" width="90" height="25" fill="#1A365D"/>
    <rect x="15" y="150" width="90" height="25" fill="#1A365D"/>
    <rect x="15" y="180" width="90" height="25" fill="#1A365D"/>
    <rect x="15" y="210" width="90" height="25" fill="#1A365D"/>
    <rect x="15" y="240" width="90" height="25" fill="#1A365D"/>
    
    <!-- 指示灯 -->
    <circle cx="95" cy="42.5" r="2" fill="#48BB78"/>
    <circle cx="85" cy="42.5" r="2" fill="#4FD1C5"/>
    <circle cx="95" cy="72.5" r="2" fill="#48BB78"/>
    <circle cx="85" cy="72.5" r="2" fill="#4FD1C5"/>
    <circle cx="95" cy="102.5" r="2" fill="#48BB78"/>
    <circle cx="85" cy="102.5" r="2" fill="#4FD1C5"/>
    <circle cx="95" cy="132.5" r="2" fill="#48BB78"/>
    <circle cx="85" cy="132.5" r="2" fill="#4FD1C5"/>
    <circle cx="95" cy="162.5" r="2" fill="#48BB78"/>
    <circle cx="85" cy="162.5" r="2" fill="#4FD1C5"/>
    <circle cx="95" cy="192.5" r="2" fill="#48BB78"/>
    <circle cx="85" cy="192.5" r="2" fill="#4FD1C5"/>
    <circle cx="95" cy="222.5" r="2" fill="#48BB78"/>
    <circle cx="85" cy="222.5" r="2" fill="#4FD1C5"/>
    <circle cx="95" cy="252.5" r="2" fill="#48BB78"/>
    <circle cx="85" cy="252.5" r="2" fill="#4FD1C5"/>
  </g>
  
  <!-- 服务器机柜组 3 -->
  <g transform="translate(500, 200)">
    <rect width="120" height="300" fill="#2D3748"/>
    <rect x="10" y="20" width="100" height="260" fill="#4A5568"/>
    <rect x="15" y="30" width="90" height="25" fill="#1A365D"/>
    <rect x="15" y="60" width="90" height="25" fill="#1A365D"/>
    <rect x="15" y="90" width="90" height="25" fill="#1A365D"/>
    <rect x="15" y="120" width="90" height="25" fill="#1A365D"/>
    <rect x="15" y="150" width="90" height="25" fill="#1A365D"/>
    <rect x="15" y="180" width="90" height="25" fill="#1A365D"/>
    <rect x="15" y="210" width="90" height="25" fill="#1A365D"/>
    <rect x="15" y="240" width="90" height="25" fill="#1A365D"/>
    
    <!-- 指示灯 -->
    <circle cx="95" cy="42.5" r="2" fill="#48BB78"/>
    <circle cx="85" cy="42.5" r="2" fill="#4FD1C5"/>
    <circle cx="95" cy="72.5" r="2" fill="#48BB78"/>
    <circle cx="85" cy="72.5" r="2" fill="#4FD1C5"/>
    <circle cx="95" cy="102.5" r="2" fill="#48BB78"/>
    <circle cx="85" cy="102.5" r="2" fill="#4FD1C5"/>
    <circle cx="95" cy="132.5" r="2" fill="#48BB78"/>
    <circle cx="85" cy="132.5" r="2" fill="#4FD1C5"/>
    <circle cx="95" cy="162.5" r="2" fill="#48BB78"/>
    <circle cx="85" cy="162.5" r="2" fill="#4FD1C5"/>
    <circle cx="95" cy="192.5" r="2" fill="#48BB78"/>
    <circle cx="85" cy="192.5" r="2" fill="#4FD1C5"/>
    <circle cx="95" cy="222.5" r="2" fill="#48BB78"/>
    <circle cx="85" cy="222.5" r="2" fill="#4FD1C5"/>
    <circle cx="95" cy="252.5" r="2" fill="#48BB78"/>
    <circle cx="85" cy="252.5" r="2" fill="#4FD1C5"/>
  </g>
  
  <!-- 环境监控指示灯 -->
  <g transform="translate(50, 100)">
    <circle cx="0" cy="0" r="5" fill="#48BB78"/>
    <text x="15" y="5" fill="white" font-size="14">Temperature: 20°C</text>
  </g>
  <g transform="translate(50, 130)">
    <circle cx="0" cy="0" r="5" fill="#4FD1C5"/>
    <text x="15" y="5" fill="white" font-size="14">Humidity: 45%</text>
  </g>
  
  <!-- 光效 -->
  <rect x="0" y="0" width="800" height="600" fill="url(#gradient)" fill-opacity="0.1"/>
  <defs>
    <linearGradient id="gradient" x1="0" y1="0" x2="800" y2="600">
      <stop offset="0%" stop-color="#4FD1C5" stop-opacity="0.2"/>
      <stop offset="100%" stop-color="#2B6CB0" stop-opacity="0.2"/>
    </linearGradient>
  </defs>
</svg> 